<svg xmlns="http://www.w3.org/2000/svg" version="1.1" xmlns:xlink="http://www.w3.org/1999/xlink" xmlns:svgjs="http://svgjs.dev/svgjs" width="2000" height="555" viewBox="0 0 2000 555"><g transform="matrix(1,0,0,1,-1.2121212121212466,1.2554140226137065)"><svg viewBox="0 0 396 110" data-background-color="#89939e" preserveAspectRatio="xMidYMid meet" height="555" width="2000" xmlns="http://www.w3.org/2000/svg" xmlns:xlink="http://www.w3.org/1999/xlink"><g id="tight-bounds" transform="matrix(1,0,0,1,0.2400000000000091,-0.24882079727478867)"><svg viewBox="0 0 395.52 110.4976415945496" height="110.4976415945496" width="395.52"><g><svg viewBox="0 0 594.2313728905158 166.01225036886473" height="110.4976415945496" width="395.52"><g transform="matrix(1,0,0,1,198.71137289051586,48.37837551732184)"><svg viewBox="0 0 395.52 69.25549933422104" height="69.25549933422104" width="395.52"><g id="textblocktransform"><svg viewBox="0 0 395.52 69.25549933422104" height="69.25549933422104" width="395.52" id="textblock"><g><svg viewBox="0 0 395.52 69.25549933422104" height="69.25549933422104" width="395.52"><g transform="matrix(1,0,0,1,0,0)"><svg width="395.52" viewBox="3.74 -38.16 219.98999999999998 38.529999999999994" height="69.25549933422104" data-palette-color="#ffffff"><path d="M3.74 0L3.74-32.64Q7.13-33.08 10.69-33.08L10.69-33.08Q17.33-33.08 20.79-29.97 24.24-26.86 24.24-20.65L24.24-20.65Q24.24-15.11 20.46-11.89L20.46-11.89Q16.92-8.86 11.35-8.86L11.35-8.86Q10.72-8.86 9.96-8.94L9.96-8.94 9.96 0 3.74 0ZM11.43-27.2L11.43-27.2Q10.69-27.2 9.96-27.15L9.96-27.15 9.96-14.31Q10.74-14.21 11.87-14.21 12.99-14.21 14.21-14.69 15.43-15.16 16.26-16.02L16.26-16.02Q17.99-17.8 17.99-20.7L17.99-20.7Q17.99-27.2 11.43-27.2ZM33.35-28.83L27.85-32.79Q29.81-35.84 31.93-38.16L31.93-38.16 37.18-34.03Q36.13-32.74 35.23-31.49L35.23-31.49Q35.23-31.49 33.35-28.83L33.35-28.83ZM34.27-25.51L34.27-2.73Q34.27-0.63 34.37 0L34.37 0 28.17 0 28.17-25.51 34.27-25.51ZM37.81 0L46.7-13.01 38.06-25.51 45.7-25.51 50.21-17.72 55.1-25.51 62.2-25.51Q62.18-25.51 61.66-24.8L61.66-24.8 53.71-13.45 62.74 0 55.17 0 50.29-8.28 45.45 0 37.81 0ZM65.1-12.55L65.1-12.55Q65.1-15.41 66.08-17.85 67.06-20.29 68.84-22.12L68.84-22.12Q72.65-26 78.8-26L78.8-26Q84-26 87.15-22.56L87.15-22.56Q90.25-19.24 90.25-14.21L90.25-14.21Q90.25-12.28 89.96-11.57L89.96-11.57Q87.52-10.89 80.02-10.89L80.02-10.89 71.43-10.89Q72.06-8.28 74.38-6.82 76.7-5.37 80.41-5.37L80.41-5.37Q84.29-5.37 87.08-6.76L87.08-6.76Q87.81-7.13 88.18-7.45L88.18-7.45Q88.13-6.42 88.05-5.35L88.05-5.35 87.79-1.54Q85.93-0.27 81.78 0.22L81.78 0.22Q80.56 0.37 79.44 0.37L79.44 0.37Q73.23 0.37 69.18-3.25L69.18-3.25Q65.1-6.88 65.1-12.55ZM83.76-15.63L83.76-15.63Q82.76-20.87 78.04-20.87L78.04-20.87Q74.33-20.87 72.4-17.68L72.4-17.68Q71.82-16.7 71.5-15.53L71.5-15.53Q72.09-15.5 72.94-15.48L72.94-15.48 74.75-15.48Q75.65-15.45 76.48-15.45L76.48-15.45 77.87-15.45Q79.12-15.45 80.31-15.48L80.31-15.48 82.32-15.55Q83.12-15.58 83.76-15.63ZM101.21-36.38L101.21-2.73Q101.21-0.63 101.31 0L101.31 0 95.11 0 95.11-36.38 101.21-36.38ZM108.22 0L108.22-32.64Q111.61-33.08 115.17-33.08L115.17-33.08Q121.81-33.08 125.27-29.97 128.72-26.86 128.72-20.65L128.72-20.65Q128.72-15.11 124.94-11.89L124.94-11.89Q121.4-8.86 115.83-8.86L115.83-8.86Q115.2-8.86 114.44-8.94L114.44-8.94 114.44 0 108.22 0ZM115.91-27.2L115.91-27.2Q115.17-27.2 114.44-27.15L114.44-27.15 114.44-14.31Q115.22-14.21 116.34-14.21 117.47-14.21 118.69-14.69 119.91-15.16 120.74-16.02L120.74-16.02Q122.47-17.8 122.47-20.7L122.47-20.7Q122.47-27.2 115.91-27.2ZM148.4 0L148.4-2.22Q145.27 0.37 141.59 0.37L141.59 0.37Q137.63 0.37 135.39-2.29L135.39-2.29Q133.24-4.88 133.24-9.4L133.24-9.4 133.24-19.09Q133.24-23.97 133.03-24.69 132.82-25.42 132.72-25.61L132.72-25.61Q133.85-25.51 135.07-25.51L135.07-25.51 137.09-25.51Q137.9-25.51 139.22-25.59L139.22-25.59 139.22-11.45Q139.22-6.42 141.95-5.62L141.95-5.62Q142.78-5.37 143.76-5.37L143.76-5.37Q146.64-5.37 148.4-7.47L148.4-7.47 148.4-25.51 154.45-25.51 154.45-3.13Q154.45-0.98 154.65 0L154.65 0 148.4 0ZM167.9-36.38L167.9-2.73Q167.9-0.63 168 0L168 0 161.8 0 161.8-36.38 167.9-36.38ZM183.35 0.37L183.35 0.37Q176.47 0.37 172.98-2.15L172.98-2.15Q173.03-2.88 173.12-3.81L173.12-3.81 173.34-5.57Q173.54-7.3 173.59-7.73 173.64-8.15 173.66-8.19 173.69-8.23 174.05-7.8 174.42-7.37 175.44-6.76 176.47-6.15 177.81-5.69L177.81-5.69Q180.72-4.69 183.87-4.69L183.87-4.69Q188.09-4.69 188.09-7.5L188.09-7.5Q188.09-8.4 187.28-8.84L187.28-8.84Q185.84-9.57 183.05-9.95 180.25-10.33 178.47-11.06 176.69-11.79 175.57-12.82L175.57-12.82Q173.49-14.75 173.49-17.87L173.49-17.87Q173.49-21.68 176.42-23.85L176.42-23.85Q179.33-26 184.45-26L184.45-26Q189.53-26 193.12-23.12L193.12-23.12Q192.95-22.49 192.75-21.9L192.75-21.9Q192.19-20.29 191.92-19.58L191.92-19.58 191.36-18.14Q191.31-17.94 191.29-17.94L191.29-17.94Q191.24-17.94 190.9-18.46L190.9-18.46Q189.36-20.24 186.11-20.8L186.11-20.8Q185.11-21 184.06-21L184.06-21Q179.62-21 179.62-18.31L179.62-18.31Q179.62-17.38 180.55-16.89L180.55-16.89Q182.28-15.97 185.29-15.53 188.31-15.09 189.87-14.34 191.44-13.6 192.39-12.55L192.39-12.55Q194.15-10.64 194.15-7.5L194.15-7.5Q194.15-4.05 191.39-1.9L191.39-1.9Q188.51 0.37 183.35 0.37ZM198.59-12.55L198.59-12.55Q198.59-15.41 199.56-17.85 200.54-20.29 202.32-22.12L202.32-22.12Q206.13-26 212.28-26L212.28-26Q217.48-26 220.63-22.56L220.63-22.56Q223.73-19.24 223.73-14.21L223.73-14.21Q223.73-12.28 223.44-11.57L223.44-11.57Q221-10.89 213.5-10.89L213.5-10.89 204.91-10.89Q205.54-8.28 207.86-6.82 210.18-5.37 213.89-5.37L213.89-5.37Q217.78-5.37 220.56-6.76L220.56-6.76Q221.29-7.13 221.66-7.45L221.66-7.45Q221.61-6.42 221.54-5.35L221.54-5.35 221.27-1.54Q219.41-0.27 215.26 0.22L215.26 0.22Q214.04 0.37 212.92 0.37L212.92 0.37Q206.72 0.37 202.66-3.25L202.66-3.25Q198.59-6.88 198.59-12.55ZM217.24-15.63L217.24-15.63Q216.24-20.87 211.53-20.87L211.53-20.87Q207.81-20.87 205.89-17.68L205.89-17.68Q205.3-16.7 204.98-15.53L204.98-15.53Q205.57-15.5 206.42-15.48L206.42-15.48 208.23-15.48Q209.13-15.45 209.96-15.45L209.96-15.45 211.35-15.45Q212.6-15.45 213.8-15.48L213.8-15.48 215.8-15.55Q216.6-15.58 217.24-15.63Z" opacity="1" transform="matrix(1,0,0,1,0,0)" fill="#000000" class="wordmark-text-0" data-fill-palette-color="primary" id="text-0"></path></svg></g></svg></g></svg></g></svg></g><g><svg viewBox="0 0 166.01225036886473 166.01225036886473" height="166.01225036886473" width="166.01225036886473"><g><svg></svg></g><g id="icon-0"><svg viewBox="0 0 166.01225036886473 166.01225036886473" height="166.01225036886473" width="166.01225036886473"><g><path d="M0 83.006c0-45.843 37.163-83.006 83.006-83.006 45.843 0 83.006 37.163 83.006 83.006 0 45.843-37.163 83.006-83.006 83.006-45.843 0-83.006-37.163-83.006-83.006zM83.006 159.767c42.394 0 76.761-34.367 76.761-76.761 0-42.394-34.367-76.761-76.761-76.76-42.394 0-76.761 34.367-76.76 76.76 0 42.394 34.367 76.761 76.76 76.761z" data-fill-palette-color="accent" fill="#000000" stroke="transparent"></path></g><g transform="matrix(1,0,0,1,54.48363638750587,37.37014310934997)"><svg viewBox="0 0 57.04497759385299 91.27196415016479" height="91.27196415016479" width="57.04497759385299"><g><svg xmlns="http://www.w3.org/2000/svg" version="1.1" data-icon="electric" data-container-transform="translate(3)" viewBox="3 0 10 16" x="0" y="0" height="91.27196415016479" width="57.04497759385299" class="icon-cg-0" data-fill-palette-color="accent" id="cg-0"><path d="M6 0l-6 10h4v6l6-10h-4v-6z" transform="translate(3)" fill="#000000" data-fill-palette-color="accent"></path></svg></g></svg></g></svg></g></svg></g></svg></g><defs></defs></svg><rect width="395.52" height="110.4976415945496" fill="none" stroke="none" visibility="hidden"></rect></g></svg></g></svg>